<?xml version="1.0"?><svg width="316.60504" height="332.12491" xmlns="http://www.w3.org/2000/svg" xmlns:xlink="http://www.w3.org/1999/xlink">
 <title>TOMATO</title>
 <defs>
  <clipPath clipPathUnits="userSpaceOnUse" id="clipPath30603">
   <path fill="url(#radialGradient30607)" fill-rule="evenodd" stroke-width="1px" id="path30605" d="m172.546661,119.653831c0,0 20.116211,15.239006 54.077911,11.761284c34.148041,-3.519424 40.784424,-10.054787 40.784424,-10.054787c28.522583,-31.581589 -136.198044,-25.141296 -94.862335,-1.706497z"/>
  </clipPath>
  <clipPath clipPathUnits="userSpaceOnUse" id="clipPath29604">
   <path fill="#372a07" fill-rule="evenodd" stroke-width="1px" id="path29606" d="m214.703506,131.117188l6.076996,0.245331c-2.534286,1.720398 4.833801,-35.349136 16.014252,-42.739395c4.832199,-3.194092 -1.203247,-12.315056 -3.820587,-10.933342c0,0 -6.4702,4.671082 -7.230133,8.093979c-0.759933,3.422882 -6.71907,17.603401 -8.131241,27.845718c-1.41217,10.242325 -2.562546,14.88784 -2.909286,17.487709z"/>
  </clipPath>
  <clipPath clipPathUnits="userSpaceOnUse" id="clipPath14290">
   <path fill="#6ea827" fill-rule="nonzero" stroke-width="1px" marker-start="none" marker-mid="none" marker-end="none" stroke-miterlimit="4" stroke-dashoffset="0" id="path14292" d="m97.161919,268.957031c-21.017715,104.602478 -63.559948,118.697784 -103.543788,116.992676c-7.71456,-0.328979 -7.3692,1.232086 -16.09525,0.101776c-7.608131,-0.985504 -20.867062,-6.02005 -28.54369,-5.438171c-45.962337,3.483734 -90.010105,-58.480438 -90.010105,-117.480164c0,-66.545929 43.084625,-110.226273 110.695154,-111.820648c93.251451,-2.182266 127.497679,51.098587 127.497679,117.644531z"/>
  </clipPath>
  <clipPath clipPathUnits="userSpaceOnUse" id="clipPath14286">
   <path fill="#6ea827" fill-rule="nonzero" stroke-width="1px" marker-start="none" marker-mid="none" marker-end="none" stroke-miterlimit="4" stroke-dashoffset="0" id="path14288" d="m95.241753,274.246094c-20.49424,98.94104 -61.976902,112.273499 -100.964883,110.660645c-7.52242,-0.311188 -7.18565,1.165405 -15.694369,0.096283c-7.41864,-0.932159 -20.34734,-5.694244 -27.832771,-5.14386c-44.817577,3.295197 -87.768253,-55.315277 -87.768253,-111.121735c0,-62.94426 42.01152,-104.260483 107.938114,-105.76857c90.928879,-2.064148 124.322163,48.332977 124.322163,111.277237z"/>
  </clipPath>
  <clipPath clipPathUnits="userSpaceOnUse" id="clipPath14282">
   <path fill="#6ea827" fill-rule="nonzero" stroke-width="1px" marker-start="none" marker-mid="none" marker-end="none" stroke-miterlimit="4" stroke-dashoffset="0" id="path14284" d="m100.842712,272.892365c-21.480553,104.602478 -64.959591,118.697784 -105.823903,116.992676c-7.88444,-0.328979 -7.53147,1.232086 -16.44968,0.101776c-7.77566,-0.985504 -21.326569,-6.02005 -29.172241,-5.438171c-46.974457,3.483734 -91.99218,-58.480469 -91.99218,-117.480164c0,-66.545929 44.033371,-110.226273 113.13273,-111.820648c95.304907,-2.182266 130.305273,51.098587 130.305273,117.644531z"/>
  </clipPath>
  <filter id="filter6620" height="1.337402" y="-0.168701" width="1.23483" x="-0.117415">
   <feGaussianBlur id="feGaussianBlur6622" stdDeviation="15.770927"/>
  </filter>
  <filter id="filter6716" height="1.527243" y="-0.263622" width="1.28409" x="-0.142045">
   <feGaussianBlur id="feGaussianBlur6718" stdDeviation="14.129591"/>
  </filter>
  <filter id="filter8819">
   <feGaussianBlur id="feGaussianBlur8821" stdDeviation="3.16423"/>
  </filter>
  <clipPath id="clipPath9802" clipPathUnits="userSpaceOnUse">
   <path fill="url(#radialGradient9806)" fill-rule="evenodd" stroke-width="1px" d="m233.859955,192.36908c0,0 -38.575775,19.287872 -50.445236,87.537231c-5.592758,32.158325 1.612335,80.904114 31.157333,100.890442c50.445221,34.124695 112.759888,56.379944 152.819305,35.608368c40.059448,-20.771545 119.407562,-113.529449 63.79837,-194.362381c-34.124695,-49.603348 -51.928894,-54.896255 -97.923065,-59.347305c-45.994141,-4.45105 -97.923035,29.673645 -99.406708,29.673645z" id="path9804"/>
  </clipPath>
  <clipPath id="clipPath9808" clipPathUnits="userSpaceOnUse">
   <path fill="url(#radialGradient9812)" fill-rule="evenodd" stroke-width="1px" d="m233.859955,192.36908c0,0 -38.575775,19.287872 -50.445236,87.537231c-5.592758,32.158325 1.612335,80.904114 31.157333,100.890442c50.445221,34.124695 112.759888,56.379944 152.819305,35.608368c40.059448,-20.771545 119.407562,-113.529449 63.79837,-194.362381c-34.124695,-49.603348 -51.928894,-54.896255 -97.923065,-59.347305c-45.994141,-4.45105 -97.923035,29.673645 -99.406708,29.673645z" id="path9810"/>
  </clipPath>
  <clipPath id="clipPath9814" clipPathUnits="userSpaceOnUse">
   <path fill="url(#radialGradient9818)" fill-rule="evenodd" stroke-width="1px" d="m233.859955,192.36908c0,0 -38.575775,19.287872 -50.445236,87.537231c-5.592758,32.158325 1.612335,80.904114 31.157333,100.890442c50.445221,34.124695 112.759888,56.379944 152.819305,35.608368c40.059448,-20.771545 119.407562,-113.529449 63.79837,-194.362381c-34.124695,-49.603348 -51.928894,-54.896255 -97.923065,-59.347305c-45.994141,-4.45105 -97.923035,29.673645 -99.406708,29.673645z" id="path9816"/>
  </clipPath>
  <clipPath id="clipPath9820" clipPathUnits="userSpaceOnUse">
   <path fill="url(#radialGradient9824)" fill-rule="evenodd" stroke-width="1px" d="m233.859955,192.36908c0,0 -38.575775,19.287872 -50.445236,87.537231c-5.592758,32.158325 1.612335,80.904114 31.157333,100.890442c50.445221,34.124695 112.759888,56.379944 152.819305,35.608368c40.059448,-20.771545 119.407562,-113.529449 63.79837,-194.362381c-34.124695,-49.603348 -51.928894,-54.896255 -97.923065,-59.347305c-45.994141,-4.45105 -97.923035,29.673645 -99.406708,29.673645z" id="path9822"/>
  </clipPath>
  <filter id="filter9858">
   <feGaussianBlur id="feGaussianBlur9860" stdDeviation="3.919226"/>
  </filter>
  <filter id="filter19027" height="1.586392" y="-0.293196" width="1.347859" x="-0.17393">
   <feGaussianBlur id="feGaussianBlur19029" stdDeviation="6.430531"/>
  </filter>
  <filter id="filter20010">
   <feGaussianBlur id="feGaussianBlur20012" stdDeviation="0.085325"/>
  </filter>
  <linearGradient id="linearGradient20022">
   <stop stop-color="#152609" id="stop20024" offset="0"/>
   <stop stop-color="#457526" id="stop20026" offset="1"/>
  </linearGradient>
  <linearGradient id="linearGradient13882">
   <stop stop-color="#163800" id="stop13884" offset="0"/>
   <stop stop-color="#598c1d" offset="0.695035" id="stop23023"/>
   <stop stop-color="#91a125" id="stop13886" offset="1"/>
  </linearGradient>
  <linearGradient id="linearGradient9792">
   <stop stop-color="#ff8626" id="stop9794" offset="0"/>
   <stop stop-color="#e12e00" id="stop9796" offset="1"/>
  </linearGradient>
  <linearGradient id="linearGradient8731">
   <stop stop-color="#ffffff" id="stop8733" offset="0"/>
   <stop stop-color="#ffffff" stop-opacity="0" id="stop8735" offset="1"/>
  </linearGradient>
  <pattern patternUnits="userSpaceOnUse" width="39.501228" height="24.735281" patternTransform="translate(160.892, -165.998)" id="pattern30611">
   <rect fill="url(#pattern30614)" id="rect26672" y="5.439102" x="1.72435" height="19.296179" width="32.881989"/>
   <rect fill="none" id="rect25640" y="0" x="0" height="24.735281" width="39.501228"/>
  </pattern>
  <radialGradient xlink:href="#linearGradient15314" id="radialGradient30607" gradientUnits="userSpaceOnUse" gradientTransform="matrix(-0.0146025, -0.960198, 1.93539, -0.0281315, 127.596, 52.0179)" cx="-81.081718" cy="44.942459" fx="-81.081718" fy="44.942459" r="44.555969"/>
  <pattern patternUnits="userSpaceOnUse" width="55.732779" height="46.659165" patternTransform="translate(163.814, -152.846)" id="pattern26663">
   <path fill="#d7eb90" fill-rule="evenodd" stroke-width="1.583967px" marker-start="none" marker-mid="none" marker-end="none" stroke-miterlimit="4" stroke-dashoffset="0" d="m55.733158,4.554533a2.138405,3.601524 0 1 1 -4.276806,0a2.138405,3.601524 0 1 1 4.276806,0z" id="path26661"/>
   <path fill="#d7eb90" fill-rule="evenodd" stroke-width="1.583967px" marker-start="none" marker-mid="none" marker-end="none" stroke-miterlimit="4" stroke-dashoffset="0" d="m46.655155,30.392538a2.138405,3.601524 0 1 1 -4.276806,0a2.138405,3.601524 0 1 1 4.276806,0z" id="path26657"/>
   <path fill="#d7eb90" fill-rule="evenodd" stroke-width="1.583967px" marker-start="none" marker-mid="none" marker-end="none" stroke-miterlimit="4" stroke-dashoffset="0" id="path26655" d="m35.127155,14.80554a2.138405,3.601524 0 1 1 -4.276808,0a2.138405,3.601524 0 1 1 4.276808,0z"/>
   <path fill="#d7eb90" fill-rule="evenodd" stroke-width="1.583967px" marker-start="none" marker-mid="none" marker-end="none" stroke-miterlimit="4" stroke-dashoffset="0" d="m12.720158,3.601537a2.138405,3.601524 0 1 1 -4.276808,0a2.138405,3.601524 0 1 1 4.276808,0z" id="path26649"/>
   <path fill="#d7eb90" fill-rule="evenodd" stroke-width="1.583967px" marker-start="none" marker-mid="none" marker-end="none" stroke-miterlimit="4" stroke-dashoffset="0" id="path26647" d="m29.931156,43.057537a2.138405,3.601524 0 1 1 -4.276808,0a2.138405,3.601524 0 1 1 4.276808,0z"/>
   <path fill="#d7eb90" fill-rule="evenodd" stroke-width="1.583967px" marker-start="none" marker-mid="none" marker-end="none" stroke-miterlimit="4" stroke-dashoffset="0" d="m4.277149,29.093534a2.138405,3.601524 0 1 1 -4.276808,0a2.138405,3.601524 0 1 1 4.276808,0z" id="path26645"/>
   <path fill="#d7eb90" fill-rule="evenodd" stroke-width="1.583967px" marker-start="none" marker-mid="none" marker-end="none" stroke-miterlimit="4" stroke-dashoffset="0" id="path26643" d="m4.277149,29.093534a2.138405,3.601524 0 1 1 -4.276808,0a2.138405,3.601524 0 1 1 4.276808,0z"/>
  </pattern>
  <pattern patternUnits="userSpaceOnUse" width="66.951949" height="59.811197" patternTransform="translate(160.892, -165.998)" id="pattern25626">
   <path fill="#d7eb90" fill-rule="evenodd" stroke-width="1.583967px" marker-start="none" marker-mid="none" marker-end="none" stroke-miterlimit="4" stroke-dashoffset="0" id="path25620" d="m66.952148,4.738539a2.138405,3.601524 0 1 1 -4.276802,0a2.138405,3.601524 0 1 1 4.276802,0z"/>
   <path fill="#d7eb90" fill-rule="evenodd" stroke-width="1.583967px" marker-start="none" marker-mid="none" marker-end="none" stroke-miterlimit="4" stroke-dashoffset="0" d="m4.277149,3.601537a2.138405,3.601524 0 1 1 -4.276808,0a2.138405,3.601524 0 1 1 4.276808,0z" id="path25618"/>
   <path fill="#d7eb90" fill-rule="evenodd" stroke-width="1.583967px" marker-start="none" marker-mid="none" marker-end="none" stroke-miterlimit="4" stroke-dashoffset="0" id="path25616" d="m7.199146,42.245541a2.138405,3.601524 0 1 1 -4.276808,0a2.138405,3.601524 0 1 1 4.276808,0z"/>
   <path fill="#d7eb90" fill-rule="evenodd" stroke-width="1.583967px" marker-start="none" marker-mid="none" marker-end="none" stroke-miterlimit="4" stroke-dashoffset="0" d="m7.199146,42.245541a2.138405,3.601524 0 1 1 -4.276808,0a2.138405,3.601524 0 1 1 4.276808,0z" id="path25614"/>
   <path fill="#d7eb90" fill-rule="evenodd" stroke-width="1.583967px" marker-start="none" marker-mid="none" marker-end="none" stroke-miterlimit="4" stroke-dashoffset="0" id="path25612" d="m32.85416,56.20953a2.138405,3.601524 0 1 1 -4.276808,0a2.138405,3.601524 0 1 1 4.276808,0z"/>
   <path fill="#d7eb90" fill-rule="evenodd" stroke-width="1.583967px" marker-start="none" marker-mid="none" marker-end="none" stroke-miterlimit="4" stroke-dashoffset="0" d="m15.643147,16.753538a2.138405,3.601524 0 1 1 -4.276808,0a2.138405,3.601524 0 1 1 4.276808,0z" id="path25610"/>
   <path fill="#d7eb90" fill-rule="evenodd" stroke-width="1.583967px" marker-start="none" marker-mid="none" marker-end="none" stroke-miterlimit="4" stroke-dashoffset="0" id="path25608" d="m21.65015,39.323528a2.138405,3.601524 0 1 1 -4.276808,0a2.138405,3.601524 0 1 1 4.276808,0z"/>
   <path fill="#d7eb90" fill-rule="evenodd" stroke-width="1.583967px" marker-start="none" marker-mid="none" marker-end="none" stroke-miterlimit="4" stroke-dashoffset="0" d="m32.042149,10.745535a2.138405,3.601524 0 1 1 -4.276808,0a2.138405,3.601524 0 1 1 4.276808,0z" id="path25606"/>
   <path fill="#d7eb90" fill-rule="evenodd" stroke-width="1.583967px" marker-start="none" marker-mid="none" marker-end="none" stroke-miterlimit="4" stroke-dashoffset="0" id="path25604" d="m38.050159,27.957533a2.138405,3.601524 0 1 1 -4.276806,0a2.138405,3.601524 0 1 1 4.276806,0z"/>
   <path fill="#d7eb90" fill-rule="evenodd" stroke-width="1.583967px" marker-start="none" marker-mid="none" marker-end="none" stroke-miterlimit="4" stroke-dashoffset="0" d="m49.578159,43.544537a2.138405,3.601524 0 1 1 -4.276806,0a2.138405,3.601524 0 1 1 4.276806,0z" id="path25602"/>
   <path fill="#d7eb90" fill-rule="evenodd" stroke-width="1.583967px" marker-start="none" marker-mid="none" marker-end="none" stroke-miterlimit="4" stroke-dashoffset="0" id="path25600" d="m62.730167,34.776531a2.138405,3.601524 0 1 1 -4.276806,0a2.138405,3.601524 0 1 1 4.276806,0z"/>
   <path fill="#d7eb90" fill-rule="evenodd" stroke-width="1.583967px" marker-start="none" marker-mid="none" marker-end="none" stroke-miterlimit="4" stroke-dashoffset="0" d="m55.261143,17.565535a2.138405,3.601524 0 1 1 -4.276806,0a2.138405,3.601524 0 1 1 4.276806,0z" id="path20550"/>
  </pattern>
  <linearGradient id="linearGradient15314">
   <stop stop-color="#1d3300" id="stop15316" offset="0"/>
   <stop stop-color="#68a02c" stop-opacity="0.236842" offset="0.496454" id="stop15318"/>
   <stop stop-color="#61a334" stop-opacity="0" id="stop15320" offset="1"/>
  </linearGradient>
  <linearGradient id="linearGradient30593">
   <stop stop-color="#000000" offset="0" id="stop30595"/>
   <stop stop-color="#000000" stop-opacity="0" offset="1" id="stop30597"/>
  </linearGradient>
  <pattern xlink:href="#pattern26663" id="pattern30609" patternTransform="matrix(0.589994, 0, 0, 0.413556, 162.616, -160.559)"/>
  <pattern xlink:href="#pattern30609" id="pattern30614" patternTransform="matrix(0.589994, 0, 0, 0.413556, 1.72435, 5.43911)"/>
  <radialGradient r="134.32591" fy="246.39078" fx="280.11124" cy="246.39078" cx="280.11124" gradientTransform="matrix(0.00670045, -0.469773, 1.03827, 0.014809, 46.4309, 406.468)" gradientUnits="userSpaceOnUse" id="radialGradient9806" xlink:href="#linearGradient9792"/>
  <radialGradient r="134.32591" fy="246.39078" fx="280.11124" cy="246.39078" cx="280.11124" gradientTransform="matrix(0.00670045, -0.469773, 1.03827, 0.014809, 46.4309, 406.468)" gradientUnits="userSpaceOnUse" id="radialGradient9812" xlink:href="#linearGradient9792"/>
  <radialGradient r="134.32591" fy="246.39078" fx="280.11124" cy="246.39078" cx="280.11124" gradientTransform="matrix(0.00670045, -0.469773, 1.03827, 0.014809, 46.4309, 406.468)" gradientUnits="userSpaceOnUse" id="radialGradient9818" xlink:href="#linearGradient9792"/>
  <radialGradient r="134.32591" fy="246.39078" fx="280.11124" cy="246.39078" cx="280.11124" gradientTransform="matrix(0.00670045, -0.469773, 1.03827, 0.014809, 46.4309, 406.468)" gradientUnits="userSpaceOnUse" id="radialGradient9824" xlink:href="#linearGradient9792"/>
  <radialGradient gradientUnits="userSpaceOnUse" gradientTransform="matrix(0.768356, -0.0042186, 0.00268899, 0.268836, -284.075, -61.8565)" r="105.4082" fy="195.24698" fx="325.95416" cy="195.24698" cx="325.95416" id="radialGradient22023" xlink:href="#linearGradient30593"/>
  <radialGradient r="8.865451" fy="-61.018017" fx="271.90884" cy="-61.018017" cx="271.90884" gradientTransform="matrix(1.00892e-06, -2.8131, 1.35971, 1.10169e-06, 218.873, 845.428)" gradientUnits="userSpaceOnUse" id="radialGradient22028" xlink:href="#linearGradient20022"/>
  <radialGradient r="105.8082" fy="-53.954494" fx="197.74216" cy="-53.954494" cx="197.74216" spreadMethod="reflect" gradientTransform="matrix(-0.013732, 0.247233, -0.589179, -0.0292979, 110.404, 23.5487)" gradientUnits="userSpaceOnUse" id="radialGradient22034" xlink:href="#linearGradient13882"/>
  <radialGradient r="134.32591" fy="246.39078" fx="280.11124" cy="246.39078" cx="280.11124" gradientTransform="matrix(0.00670045, -0.469773, 1.03827, 0.014809, 46.4309, 406.468)" gradientUnits="userSpaceOnUse" id="radialGradient23025" xlink:href="#linearGradient9792"/>
  <linearGradient y2="1.197455" x2="0.297949" y1="-0.296154" x1="0.199977" id="linearGradient23027" xlink:href="#linearGradient8731"/>
 </defs>
 <metadata id="metadata7">image/svg+xml</metadata>
 <g>
  <title>Layer 1</title>
  <g id="svg_1">
   <g id="g9826" transform="matrix(0.847287, 0, 0, 0.801693, -135.713, -88.6801)">
    <path fill="url(#radialGradient23025)" fill-rule="evenodd" stroke-width="1px" clip-path="url(#clipPath9820)" id="path3632" d="m233.859955,192.36908c0,0 -38.575775,19.287872 -50.445236,87.537231c-5.592758,32.158325 1.612335,80.904114 31.157333,100.890442c50.445221,34.124695 112.759888,56.379944 152.819305,35.608368c40.059448,-20.771545 119.407562,-113.529449 63.79837,-194.362381c-34.124695,-49.603348 -51.928894,-54.896255 -97.923065,-59.347305c-45.994141,-4.45105 -97.923035,29.673645 -99.406708,29.673645z"/>
    <path opacity="0.630769" fill="#fff6d5" fill-rule="evenodd" stroke-width="1px" filter="url(#filter6716)" clip-path="url(#clipPath9814)" id="path4603" d="m248.696793,199.787491c-4.198883,1.676254 -13.311417,9.983551 -17.804214,13.353149c-5.984528,4.488388 -10.274338,8.456238 -11.869476,14.836823c-1.954132,7.816498 -3.022461,13.573471 -4.45105,19.287888c-1.329483,5.317902 7.744247,10.838135 11.869476,11.869446c7.272675,1.818176 16.515854,0.048828 22.255264,1.483673c8.048508,2.012146 9.204514,8.9021 19.287857,8.9021c9.124939,0 15.303009,0.233093 20.771545,2.967346c5.650604,2.825287 10.601196,8.267975 14.836823,10.385773c6.953461,3.476715 9.508057,5.715302 16.320526,7.418427c7.527863,1.881958 15.109528,1.180939 22.255219,2.967346c11.568787,2.892212 11.279236,-6.541168 13.353149,-14.836823c0.517975,-2.071869 15.420135,-10.969055 16.320496,-11.869415c4.372345,-4.372345 12.07254,-2.967377 19.287872,-2.967377c10.08017,0 11.279541,-3.664459 16.320526,-10.385773c3.93512,-5.246826 5.934723,-14.16214 5.934723,-20.771561c0,-9.893295 -6.167175,-12.101913 -11.869446,-17.804184c-4.742584,-4.742569 -9.241821,-9.241806 -13.353149,-13.353149c-5.963318,-5.963318 -11.608673,-9.391251 -17.804199,-11.869461c-9.310455,-3.724182 -13.353149,-5.426117 -13.353149,5.934738c0,8.588776 2.967377,9.743515 2.967377,19.287872c0,9.114929 -1.00238,13.353134 -10.385773,13.353134c-7.625,0 -15.57132,3.334625 -20.771545,5.934738c-6.353821,3.17688 -22.702667,1.483688 -29.673676,1.483688c-9.931122,0 -23.476563,0.436493 -31.157318,-1.483688c-3.308228,-0.827057 -11.349426,-15.724075 -11.869476,-17.804199c-1.682312,-6.729309 -7.418381,-2.275696 -7.418381,-16.320511z"/>
    <path fill="#800000" fill-rule="evenodd" stroke-width="1px" filter="url(#filter6620)" clip-path="url(#clipPath9808)" id="path4605" d="m440.138062,246.360504c-0.870239,17.686035 1.820068,35.742249 -1.826935,53.166809c-3.996368,10.682526 -5.403015,25.844421 -18.600311,28.675934c-10.829132,8.441101 -23.732635,14.564758 -32.011871,25.857025c-9.608459,10.026398 -19.774353,19.996033 -32.951691,24.932556c-13.661835,1.585999 -21.345825,17.865204 -35.605469,16.0625c-10.105072,-7.844116 -28.473022,-7.563019 -41.009796,-9.135254c-14.093445,0.827942 -12.573608,-17.209351 -22.00238,-23.613861c-11.369125,-9.568512 -26.43573,-6.682312 -39.456833,-10.847168c-13.077301,-6.661285 -18.757874,-21.458069 -27.177444,-32.781494c-4.292358,-7.295013 -9.131775,-23.084808 -7.728699,-6.636871c0.439209,26.510071 7.289932,55.363159 27.823822,73.607758c23.410522,17.942017 50.367126,31.140778 78.298431,40.437103c27.955414,8.861847 61.002777,12.018005 86.627197,-5.028259c26.024902,-17.623749 46.582855,-42.904938 60.84906,-70.773956c16.260376,-31.919678 21.12381,-71.008636 4.772919,-103.922821z"/>
    <path opacity="0.615385" fill="url(#linearGradient23027)" fill-rule="evenodd" stroke-width="1px" marker-start="none" marker-mid="none" marker-end="none" stroke-miterlimit="4" stroke-dashoffset="0" filter="url(#filter8819)" clip-path="url(#clipPath9802)" d="m235.343628,238.363251c-0.494568,0.989105 -0.989136,1.978241 -1.483673,2.967346c-12.077194,24.154358 -14.836853,9.445099 -14.836853,38.575745c-1.191055,2.382111 10.880371,7.912964 13.353149,8.902069c-1.413849,2.827759 35.906891,2.971802 22.255249,-31.157318c-4.848282,-12.120697 -8.616318,-13.952087 -19.287872,-19.287842zm32.641022,19.287842c-0.396057,-0.990082 10.151215,19.5224 -7.418427,37.092072c-1.667694,1.667694 26.995972,5.337708 45.994171,14.836823c34.634796,17.317383 38.388855,-27.217377 19.287872,-41.543091c-5.888855,-4.416626 -48.321228,-10.385803 -57.863617,-10.385803z" id="path7691"/>
   </g>
   <path opacity="0.95" fill="url(#radialGradient22023)" fill-rule="evenodd" stroke-width="1px" filter="url(#filter9858)" id="path9832" d="m132.456146,76.370476c-1.701843,-0.266434 -3.744049,-5.861374 -28.250488,-5.062096c-24.506424,0.799271 -40.503708,8.259209 -42.886276,11.989182c-2.382568,3.729958 -3.744026,9.058479 -3.744026,9.058479l-2.382584,1.332123c0,0 0,-6.927071 0.68074,-8.259209c0.680748,-1.332123 18.03949,-15.985558 23.485367,-18.649818c5.445847,-2.664261 23.144966,-3.729965 28.590843,-1.332138c5.445877,2.397835 15.997238,2.930695 15.997238,2.930695c0,0 1.701843,-6.927078 -14.295425,-14.653435c-15.997246,-7.726357 -24.846809,-12.255604 -30.973396,-10.657051c-6.126617,1.59856 -14.976189,7.45993 -13.614708,9.058479c1.361465,1.598572 1.361465,-5.062088 1.361465,-5.062088l13.274338,-5.328514c0,0 14.635796,-2.131413 25.187164,2.930683c10.551392,5.062092 33.696365,14.653439 33.696365,14.653439c0,0 5.445877,-8.525642 8.168808,-11.456322c2.722946,-2.930687 10.211044,-18.91626 15.316544,-20.51482c5.105484,-1.598553 10.211014,-0.799278 10.211014,-0.799278l-2.042206,3.197117l1.701843,1.33213l-3.403687,0c0,0 -1.021088,1.332134 -4.084396,7.726353c-3.063324,6.39423 -6.126617,19.18269 -6.126617,21.047665c0,1.86499 -0.340347,3.463547 -0.340347,3.463547c0,0 10.551361,-1.864983 17.699081,-3.463547c7.14772,-1.598549 17.699081,-4.795662 22.123871,-4.529243c4.424774,0.266426 13.955048,-0.266418 18.039444,1.065704c4.084412,1.33213 8.849548,0.53286 11.912857,4.795677c3.063324,4.26281 7.147705,14.120575 5.786255,15.186287c-1.361481,1.065704 -2.722931,-9.324921 -8.849564,-11.722755c-6.126617,-2.397827 -12.593582,-5.062096 -21.783508,-3.996391c-9.189911,1.065712 3.063324,-1.065704 -12.593567,2.930695c-15.656891,3.996391 -31.65416,8.792061 -31.65416,8.792061c0,0 8.849564,9.058495 10.891754,10.923477c2.042191,1.864975 11.912857,13.321304 12.933945,16.518417c1.021103,3.197113 0,11.989197 0,11.989197c0,0 1.021103,-11.989197 -2.722931,-14.387039c-3.744034,-2.397835 -8.509171,-10.124191 -15.316513,-13.054886c-6.807358,-2.930672 -13.614685,-10.657043 -17.358719,-9.857758c-3.744049,0.799271 -4.765137,3.197113 -8.168823,2.664253c-3.403671,-0.532845 -7.488098,-1.332123 -6.466995,-0.799271z"/>
   <path fill="url(#radialGradient22034)" fill-rule="evenodd" stroke="#8d7100" stroke-width="0.247252" stroke-miterlimit="4" stroke-opacity="0.618645" id="path9862" d="m127.429382,89.653625c-1.701843,-0.322067 -3.744019,-7.085129 -28.250473,-6.118988c-24.506439,0.966156 -40.503708,9.983612 -42.886276,14.492325c-2.382568,4.508728 -3.744034,10.949753 -3.744034,10.949753l-2.382584,1.61026c0,0 0,-8.373352 0.68074,-9.983612c0.68074,-1.610245 18.039474,-19.32309 23.485336,-22.54361c5.445877,-3.22052 23.144974,-4.508713 28.590851,-1.61026c5.445877,2.898483 15.997284,3.542572 15.997284,3.542572c0,0 1.701813,-8.373337 -14.295441,-17.71283c-15.997269,-9.339493 -24.846817,-14.814362 -30.973419,-12.882065c-6.126617,1.932312 -14.976166,9.017441 -13.614685,10.949753c1.361465,1.932312 1.361465,-6.118988 1.361465,-6.118988l13.274323,-6.441025c0,0 14.635773,-2.576416 25.187164,3.542572c10.551376,6.118973 33.696365,17.712845 33.696365,17.712845c0,0 5.445892,-10.305664 8.168823,-13.848221c2.722931,-3.542572 10.211029,-22.865669 15.316498,-24.797989c5.10553,-1.932297 10.211029,-0.966148 10.211029,-0.966148l-0.118683,2.226639l1.317139,5.250221l-4.942505,-2.001991c0,0 -1.021088,1.61026 -4.084381,9.339516c-3.063324,7.729225 -6.126617,23.187714 -6.126617,25.442062c0,2.254364 -0.340393,4.186676 -0.340393,4.186676c0,0 10.551392,-2.254364 17.699097,-4.186676c7.147736,-1.932312 17.699127,-5.796921 22.123901,-5.474869c4.424744,0.322052 13.955017,-0.322052 18.039429,1.288208c4.084412,1.610245 8.849548,0.644104 11.912903,5.796921c3.063293,5.152817 7.147705,17.068741 5.786224,18.356949c-1.361481,1.288193 -2.722931,-11.27182 -8.849579,-14.170273c-6.126587,-2.898468 -12.593567,-6.118988 -21.783508,-4.830765c-9.18988,1.288193 3.063324,-1.288223 -12.593567,3.542557c-15.65686,4.830765 -31.654144,10.627701 -31.654144,10.627701c0,0 8.849548,10.949753 10.891754,13.204117c2.042206,2.254364 11.912842,16.102585 12.93396,19.967194c1.021088,3.864624 0,14.49234 0,14.49234c0,0 1.021088,-14.49234 -2.722961,-17.390793c-3.744019,-2.898468 -8.509155,-12.237961 -15.316498,-15.780533c-6.807343,-3.542572 -13.614716,-12.882065 -17.358734,-11.915894c-3.744049,0.966141 -4.765137,3.864609 -8.168823,3.220505c-3.403687,-0.644104 -7.488098,-1.61026 -6.46698,-0.966156z"/>
   <path fill="none" fill-rule="evenodd" stroke="#000000" stroke-width="0.824175px" d="m130.95726,61.49649l0,0z" id="path12881"/>
   <path opacity="0.730769" fill="none" fill-rule="evenodd" stroke="#529330" stroke-width="0.32967" stroke-miterlimit="4" id="path12883" d="m161.779343,29.618881c0,0 0.830231,-0.221581 -2.876312,3.7239c-3.706528,3.945457 -15.057831,33.974876 -18.069382,41.208244c-7.413071,4.383865 -7.413071,4.383865 -7.413071,4.383865c1.621613,0 15.521133,2.19191 21.080933,0.43837c5.55983,-1.753525 25.94577,-10.082855 37.992035,-11.178833c12.046249,-1.095963 21.312607,-2.191917 25.482468,1.095978c4.169861,3.287888 8.571381,8.548508 8.571381,8.548508m-144.323395,-30.467793c0,0 15.289467,6.137398 22.70256,10.521248c7.413071,4.383862 22.007568,15.562702 24.555832,18.193005c2.548233,2.63031 3.011551,2.849518 3.011551,2.849518c0,0 13.436188,-1.534363 15.984451,2.63031c2.548248,4.164658 16.447769,18.631393 16.447769,18.631393m-31.505585,-21.042511c0,0 -0.926636,1.534348 -8.571381,2.411118c-7.64473,0.87677 -14.13118,-1.75354 -24.324173,-2.411118c-10.19297,-0.657593 -19.690979,0.87677 -24.092499,2.849503c-4.40152,1.972733 -20.849297,11.836411 -20.849297,14.466736"/>
   <path fill="#071f05" fill-rule="evenodd" stroke-width="0.4" marker-start="none" marker-mid="none" marker-end="none" stroke-miterlimit="4" stroke-dashoffset="0" stroke-opacity="0.618645" filter="url(#filter19027)" id="path17776" d="m149.445053,78.71212a14.335601,6.530899 0 1 1 -28.671204,0a14.335601,6.530899 0 1 1 28.671204,0z"/>
   <path fill="url(#radialGradient22028)" fill-rule="evenodd" stroke-width="1px" d="m129.124527,46.630531l-0.68074,30.916954c0,0 -0.680725,3.542572 3.063309,3.864609c3.744034,0.322067 8.185867,1.758331 9.887695,-0.173981c1.701843,-1.932297 3.022522,0.16478 1.004059,-11.419876c-3.704529,-21.261597 -3.744049,-23.831802 -3.744049,-23.831802l-9.530273,0.644096z" id="path2226"/>
   <path opacity="0.469231" fill="#e2e3db" fill-rule="evenodd" stroke-width="1px" filter="url(#filter20010)" d="m130.269592,48.308754c0,0 -0.265488,28.133072 0,30.393768c0.265472,2.260689 1.59285,2.511879 1.59285,2.511879c0,0 1.327377,-10.801086 1.06189,-19.090302c-0.265472,-8.289207 -2.654739,-14.066532 -2.654739,-13.815346z" id="path19031"/>
   <path fill="#89a02c" fill-rule="evenodd" stroke-width="0.4" marker-start="none" marker-mid="none" marker-end="none" stroke-miterlimit="4" stroke-dashoffset="0" stroke-opacity="0.618645" id="path20030" d="m138.71875,46.233269a4.858574,1.101721 0 1 1 -9.717163,0.466515a4.858574,1.101721 0 1 1 9.717163,-0.466515z"/>
  </g>
 </g>
</svg>